
<?xml version="1.0" encoding="utf-8"?>
<!-- Generator: Adobe Illustrator 21.1.0, SVG Export Plug-In . SVG Version: 6.00 Build 0)  -->
<svg version="1.1" id="Layer_1" xmlns="http://www.w3.org/2000/svg" xmlns:xlink="http://www.w3.org/1999/xlink" x="0px" y="0px"
	 viewBox="0 0 121.4 52.8" style="enable-background:new 0 0 121.4 52.8;" xml:space="preserve">
<style type="text/css">
	.st0{fill:none;stroke:#ABB4BB;stroke-width:0.3;}
	.st1{fill:#ABB4BB;}
</style>
<g>
	<path class="st0" d="M24.3,49.1l4.5,2.3L25,51.8L24.3,49.1z M26.4,42.9l-6.5-5.3l8.5,1.3L26.4,42.9z M9.7,23.5l-5,0.3l3.1-5.6
		L9.7,23.5z"/>
	<path class="st0" d="M2.6,17.4l5.1,1l-1-2.7L2.6,17.4z M7.8,12.2L7.4,8l-0.8,7.7L7.8,12.2z"/>
	<path class="st0" d="M7.8,12.2l3.4-1.5l-2.7,4.2l-1.9,0.8L7.8,12.2z M2.6,17.4l2.1,6.5l1.9-4.6L2.6,17.4z"/>
	<path class="st0" d="M2.6,17.4l5.1,1l-1.1,1L2.6,17.4z"/>
	<path class="st0" d="M4.6,23.9l3.1-5.6l-1.1,1L4.6,23.9z M6.6,33.9l4.4-4.8l3.3-0.2v4.5L6.6,33.9z M6.6,33.9l7.2,2l0.4-2.6
		L6.6,33.9z M14.8,44.6l5.6,2.1l6-3.8L18.2,40L14.8,44.6z"/>
	<path class="st0" d="M12.7,46.1l2.1-1.5L19,48l-1.7,2.7L12.7,46.1z M14.8,44.5L19,48l1.4-1.3L14.8,44.5z"/>
	<path class="st0" d="M24.3,49.1l-3.9-2.5L19,48l6,3.8L24.3,49.1z M21.6,50.3l1,2.2l-5.3-1.8L21.6,50.3z"/>
	<path class="st0" d="M21.6,50.3L19,48l-1.7,2.7L21.6,50.3z"/>
	<path class="st0" d="M21.6,50.3L19,48l6,3.8L21.6,50.3z"/>
	<path class="st0" d="M21.6,50.3l1,2.2l2.4-0.7L21.6,50.3z M6.6,33.9L3,34.8l0.4,0.8L6.6,33.9z"/>
	<path class="st0" d="M6.6,33.9l-3.1,1.7l8,4l2.3-3.8L6.6,33.9z"/>
	<path class="st0" d="M6.5,43.9l3.7-3.3l-6.7-5L6.5,43.9z"/>
	<path class="st0" d="M11.5,39.7l-1.3,1l-6.7-5L11.5,39.7z"/>
	<path class="st0" d="M11.5,39.7l-1.3,1l2.5,5.4L11.5,39.7z"/>
	<path class="st0" d="M6.5,43.9l3.7-3.3l2.5,5.4L6.5,43.9z M35,45.5l-10.7,3.6l2.1-6.3L35,45.5z"/>
	<path class="st0" d="M35,45.5l-2-3.4l-6.7,0.7L35,45.5z M35,45.5l-0.6,4.3l8.3-4.6L35,45.5z"/>
	<path class="st0" d="M35,45.5l-2-3.4l9.7,3.1L35,45.5z M26.4,42.9l-2.1,6.3l-3.9-2.5L26.4,42.9z M28.8,51.4l5.6-1.6l-2.8-0.7
		L28.8,51.4z"/>
	<path class="st0" d="M35,45.5l-0.6,4.3l-2.8-0.7L35,45.5z"/>
	<path class="st0" d="M35,45.5l-10.7,3.6h7.3L35,45.5z M28.8,51.4l-4.6-2.3h7.4L28.8,51.4z M26.4,42.9l-6.5-5.3L18.2,40L26.4,42.9z"
		/>
	<path class="st0" d="M13.8,35.9l6.1,1.7L18.2,40L13.8,35.9z"/>
	<path class="st0" d="M14.8,44.6l-1-8.7l4.4,4.1L14.8,44.6z"/>
	<path class="st0" d="M14.8,44.6l-1-8.7l-2.3,3.8L14.8,44.6z"/>
	<path class="st0" d="M14.8,44.6l-2.1,1.5l-1.2-6.4L14.8,44.6z M14.8,44.6l-2.1,1.5l-1.2-6.4L14.8,44.6z M3,24.5l-2.9,2.2L3,34.8
		l4.3-6.4L3,24.5z M6.6,33.9L3,34.8l4.3-6.4L6.6,33.9z"/>
	<path class="st0" d="M6.6,33.9l4.4-4.8l-3.7-0.6L6.6,33.9z"/>
	<path class="st0" d="M3,24.5l8,4.6l-3.7-0.6L3,24.5z"/>
	<path class="st0" d="M4.6,23.9L3,24.5l8,4.6l3-4l-4.4-1.5L4.6,23.9z"/>
	<path class="st0" d="M3,24.5l1.6-0.6l-2.1-6.5L3,24.5z M26.4,42.9l2-4l5.9-1.4L26.4,42.9z"/>
	<path class="st0" d="M34.2,37.5L33,42.2l-6.6,0.7L34.2,37.5z M18.1,31.4l-1,3.1l-2.9-5.6L18.1,31.4z"/>
	<path class="st0" d="M18.1,31.4l-4-6.3l0.2,3.8L18.1,31.4z"/>
	<path class="st0" d="M11,29.1l3-4l0.2,3.8L11,29.1z"/>
	<path class="st0" d="M14.8,21.2l-0.5,2.6L14,25.1l-4.4-1.6L14.8,21.2L14.8,21.2z"/>
	<path class="st0" d="M14.8,21.2l-0.5,2.6c-0.1,0.7-0.3,1.3-0.3,1.3l3.4-4.1L14.8,21.2z"/>
	<path class="st0" d="M14.8,21.2l0.7-2.7l1.9,2.5L14.8,21.2z"/>
	<path class="st0" d="M14.8,21.2l0.7-2.7l-5.9,5.1L14.8,21.2z"/>
	<path class="st0" d="M9.5,22.5l7.2-9.4l-1.1,5.4l-5.9,5.1L9.5,22.5z"/>
	<path class="st0" d="M17.8,14.1l-1.2-1l-1.1,5.4l1.9,2.6L17.8,14.1z M17.8,14.1l4.9-2.7l-6,1.8L17.8,14.1z M14.3,33.3l2.9,1.1
		l-2.9-5.6L14.3,33.3z"/>
	<path class="st0" d="M14.3,33.3l2.9,1.1l-3.3,1.5L14.3,33.3z"/>
	<path class="st0" d="M19.9,37.6l-2.8-3.1l-3.3,1.5L19.9,37.6z M11.3,14.9l5.3-1.7l-7.2,9.3L11.3,14.9z"/>
	<path class="st0" d="M11.3,14.9H8.5l0.9,7.6L11.3,14.9z"/>
	<path class="st0" d="M6.7,15.7l1.9-0.8l1.1,8.7L6.7,15.7z M7.7,12.2L15.3,9l-0.8-1.8L7.7,12.2z M11.3,14.9H8.5l2.7-4.2L11.3,14.9z"
		/>
	<path class="st0" d="M11.3,14.9l5.3-1.7l-5.4-2.4L11.3,14.9z"/>
	<path class="st0" d="M15.2,9l1.4,4.2l-5.4-2.4L15.2,9z M15.2,9l-0.8-1.8l2.6-5.8L15.2,9z"/>
	<path class="st0" d="M7.4,8l7.1-0.8l2.6-5.8L7.4,8z"/>
	<path class="st0" d="M7.7,12.2l1.9-2.4l4.8-2.6L7.7,12.2z"/>
	<path class="st0" d="M14.5,7.2L9.7,9.7L7.4,8L14.5,7.2z"/>
	<path class="st0" d="M7.8,12.2l1.9-2.5L7.4,8L7.8,12.2z M35.3,4.5l-8.7,0.7l6.3,4.2L35.3,4.5z"/>
	<path class="st0" d="M35.6,1.7l-0.3,2.8l-8.7,0.7l-2.5-2.5L35.6,1.7z"/>
	<path class="st0" d="M35.6,1.7l-7.1-1.5l-4.4,2.4L35.6,1.7z M39.1,12.9l-1.7-4L32,14.5L39.1,12.9z M32.8,9.3l-6.2-4.1L26,10
		l4.5,0.8L32.8,9.3z"/>
	<g>
		<path class="st0" d="M32,14.5l5.4-5.6l-0.2-5.4L32,14.5z"/>
		<path class="st0" d="M32,14.5l0.9-5.3l2.5-4.8l1.9-1L32,14.5z"/>
		<path class="st0" d="M32.8,9.3l-2.4,1.6l1.5,3.7L32.8,9.3z"/>
	</g>
	<path class="st0" d="M22.7,11.3l-3.5-2.1L26,10L22.7,11.3z"/>
	<path class="st0" d="M22.7,11.3l-3.5-2.1l-2.5,3.9L22.7,11.3z M16.6,13.1l2.5-3.9l-1-2.8l-2.9,2.4L16.6,13.1z"/>
	<g>
		<path class="st0" d="M39.1,12.9l-1.7-4l2.8,2.4L39.1,12.9z"/>
		<path class="st0" d="M40.2,11.2l-2.8-2.3l4.4-0.4L40.2,11.2z"/>
	</g>
	<g>
		<path class="st0" d="M39.1,4.1l-1.7,4.8l-0.2-5.4L39.1,4.1z"/>
		<path class="st0" d="M39.1,4.1l-1.7,4.8l4.4-0.4L39.1,4.1z M39.1,4.1l-3.5-2.4l1.6,1.8L39.1,4.1z"/>
	</g>
	<path class="st0" d="M35.3,4.5l0.3-2.8l1.6,1.8L35.3,4.5z"/>
	<g>
		<path class="st0" d="M23.2,5.6L26,10l-6.9-0.8l-1-2.8L23.2,5.6z"/>
		<path class="st0" d="M23.2,5.6L26,10l0.6-4.9l-2.5-2.5L23.2,5.6z"/>
		<path class="st0" d="M23.2,5.6l-5.1,0.9l0.8-2.4l5.2-1.5L23.2,5.6z"/>
	</g>
	<path class="st0" d="M17.1,1.4l1.8,2.7l5.2-1.5L17.1,1.4z"/>
	<path class="st0" d="M17.1,1.4l1.8,2.7l-0.8,2.5L17.1,1.4z"/>
	<path class="st0" d="M17.1,1.4l-1.8,7.6l2.8-2.3L17.1,1.4z"/>
	<g>
		<path class="st0" d="M40.5,36.8l2.2,8.5l-6.4-5.1l-0.2-4L40.5,36.8z"/>
		<path class="st0" d="M34.2,37.5L33,42.2l3.3-2l-0.2-4L34.2,37.5z"/>
		<path class="st0" d="M33,42.1l9.7,3.1l-6.4-5.1L33,42.1z M40.5,36.8l-4.2-1.6l-0.3,1L40.5,36.8z"/>
		<path class="st0" d="M34.2,37.5l2.1-2.4l-0.3,1L34.2,37.5z"/>
	</g>
	<path class="st0" d="M32,14.5l7.1-1.6l2.7-4.5l-2.7-4.4l-3.5-2.4l-7.1-1.5l-4.4,2.4l-7-1.2L7.4,8l-0.8,7.7l-4.1,1.7L3,24.5
		l-2.9,2.2l2.9,8l0.4,0.8l3,8.3l6.2,2.2l4.6,4.6l5.3,1.8l2.4-0.7l3.8-0.4l5.6-1.6l8.3-4.6l-2.2-8.5l-4.2-1.6l-2.1,2.3l-5.9,1.4
		l-8.5-1.3l-2.7-3.1l1-3.1l-4-6.3l3.4-4.1l0.4-6.9l4.8-2.7L26,10l4.5,0.8L32,14.5z"/>
</g>
</svg>
